# xmcd CD database file
#
# Track frame offsets:
#	151
#	17214
#	33787
#	49570
#	65551
#	86324
#	107207
#	121802
#	141019
#	159032
#	173805
#	194826
#	219657
#	239128
#	259543
#	276624
#
# Disc length: 3941 seconds
#
# Revision: 0
# Processed by: cddbd v1.4PL0 Copyright (c) Steve Scherf et al.
# Submitted via: CDex 1.51
#
DISCID=e40f6310
DTITLE=Various Artist - Super Merengues Vol. 1 99
DYEAR=2000
DGENRE=Merengue
TTITLE0=La Soga - Follow The Leader
TTITLE1=Rokabanda - El Baile De Los Muchachitos
TTITLE2=Freddy Gererdo - La Peluca
TTITLE3=Oro Solido - La Vecina
TTITLE4=Banda Gorda - Rumba Y Gozadero
TTITLE5=Celia Cruz and Kinoto Mendez - Me Estan Hablando Del Cielo
TTITLE6=Incansables - Juanito
TTITLE7=Manole - A Que Sabe El Ron Sin Mujeres
TTITLE8=La Makina - Ayer Te Llame
TTITLE9=Juan Luis Guerra 440 - Mi PC
TTITLE10=Pa' lo Hondo - El Cre'que E' Tiguere
TTITLE11=Rafey Matias - Ahora Que Te Vas
TTITLE12=Jossie Esteban - El Hueso
TTITLE13=B ...Chula - Muy Triste Vendo
TTITLE14=M. ly Queseda and Elvis Crespo - Para Darte Mi V'da
TTITLE15=Cocoband - Sosamania
EXTD=YEAR: 2000
EXTT0=
EXTT1=
EXTT2=
EXTT3=
EXTT4=
EXTT5=
EXTT6=
EXTT7=
EXTT8=
EXTT9=
EXTT10=
EXTT11=
EXTT12=
EXTT13=
EXTT14=
EXTT15=
PLAYORDER=
